<svg version="1.1" id="Layer_1" xmlns="http://www.w3.org/2000/svg" xmlns:xlink="http://www.w3.org/1999/xlink" x="0px" y="0px" viewBox="0 0 301 400" style="enable-background:new 0 0 301 400;" xml:space="preserve" height="41.150442477876105" width="31">
<style type="text/css">
	.st0{fill-rule:evenodd;clip-rule:evenodd;}
</style>
<g>
	<path d="M115.94,295.62h-7.62l-0.2-2.87l-0.33-0.83h-8.94l-0.33,0.83l-0.2,2.87h-6.5l8.28-19.6l-0.96-2.31h7.72L115.94,295.62z
		 M106.23,287.92l-2.9-7.39l-2.9,7.39H106.23z"></path>
	<path d="M117.12,290.5v-7.89h-2.84v-0.63l7.29-7.23h1.58v4.16h5.02v3.7h-5.02v7.53c0,1.09,0.63,1.65,1.72,1.65
		c0.92,0,2.11-0.13,3.53-0.43l-0.59,3.83c-1.32,0.46-2.81,0.92-4.98,0.92C119.17,296.11,117.12,294.13,117.12,290.5z"></path>
	<path d="M130.81,292.28v-15.25l-1.09-3.33l7.16-1.98v20.56l0.82,3.33h-7.69L130.81,292.28z"></path>
	<path d="M139.46,290.63c0-3.1,2.38-5.61,5.84-5.61c2.21,0,3.76,0.89,4.72,1.68v-1.29c0-1.88-1.19-3.07-3.76-3.07
		c-0.79,0-1.39,0.07-1.95,0.2l-3.8,1.55l0.79-5.12c1.62-0.3,3.7-0.63,6.21-0.63c5.54,0,8.48,2.11,8.48,7.39v6.44l1.19,3.43h-6.44
		l-0.43-2.44c-0.69,1.39-2.34,2.94-5.15,2.94C141.87,296.11,139.46,293.7,139.46,290.63z M150.05,289.67v-0.5
		c-0.76-0.69-1.68-1.06-2.67-1.06c-1.39,0-2.31,0.92-2.31,2.18c0,1.25,0.99,2.21,2.38,2.21S150.05,291.46,150.05,289.67z"></path>
	<path d="M171.04,292.28v-6.73c0-1.58-0.89-2.54-2.44-2.54s-2.67,1.19-2.67,3.2v6.07l0.56,3.33h-7.46l0.83-3.33v-8.75l-1.09-3.33
		l6.83-1.98v3.86c0.86-2.08,2.91-3.63,5.74-3.63c3.6,0,5.78,2.54,5.78,5.71v8.12l0.79,3.33h-7.43L171.04,292.28z"></path>
	<path d="M181.73,290.5v-7.89h-2.84v-0.63l7.29-7.23h1.58v4.16h5.02v3.7h-5.02v7.53c0,1.09,0.63,1.65,1.72,1.65
		c0.92,0,2.11-0.13,3.53-0.43l-0.59,3.83c-1.32,0.46-2.81,0.92-4.98,0.92C183.78,296.11,181.73,294.13,181.73,290.5z"></path>
	<path d="M194.47,290.63c0-3.1,2.38-5.61,5.84-5.61c2.21,0,3.76,0.89,4.72,1.68v-1.29c0-1.88-1.19-3.07-3.76-3.07
		c-0.79,0-1.39,0.07-1.95,0.2l-3.8,1.55l0.79-5.12c1.62-0.3,3.7-0.63,6.21-0.63c5.54,0,8.48,2.11,8.48,7.39v6.44l1.19,3.43h-6.44
		l-0.43-2.44c-0.69,1.39-2.34,2.94-5.15,2.94C196.88,296.11,194.47,293.7,194.47,290.63z M205.06,289.67v-0.5
		c-0.76-0.69-1.68-1.06-2.67-1.06c-1.39,0-2.31,0.92-2.31,2.18c0,1.25,0.99,2.21,2.38,2.21
		C203.84,292.51,205.06,291.46,205.06,289.67z"></path>
	<path d="M35.1,322.28v-15.25l-0.79-3.33h7.89l-0.83,3.33v5.35h7.72v-5.35l-0.79-3.33h7.85l-0.79,3.33v15.25l0.79,3.33H48.3
		l0.79-3.33v-5.45h-7.72v5.45l0.83,3.33h-7.89L35.1,322.28z"></path>
	<path d="M58.56,317.23c0-5.61,4.09-8.88,9.6-8.88s9.54,3.27,9.54,8.88c0,5.64-4.06,8.91-9.54,8.91
		C62.89,326.14,58.56,322.88,58.56,317.23z M71.4,317.23c0-3.47-1.22-4.75-3.23-4.75s-3.27,1.29-3.27,4.75c0,3.5,1.22,4.79,3.2,4.79
		C70.11,322.02,71.4,320.73,71.4,317.23z"></path>
	<path d="M92.59,325.62l-0.43-2.97c-0.83,2.01-2.71,3.47-5.74,3.47c-3.6,0-5.74-2.54-5.74-5.71v-6.83l-1.09-3.37l7.16-1.98v11.49
		c0,1.58,0.89,2.54,2.38,2.54c1.52,0,2.64-1.09,2.64-3.14v-5.58l-1.09-3.33l7.16-1.98v13.99l1.16,3.4H92.59z"></path>
	<path d="M101.76,325.42l-0.79-5.38l3.8,1.98c1.65,0.36,2.67,0.46,3.63,0.46c1.52,0,2.34-0.5,2.34-1.19c0-0.86-0.66-1.39-3.2-1.92
		c-4.49-0.86-6.5-2.64-6.5-5.71c0-3,2.41-5.31,7.86-5.31c2.57,0,4.59,0.36,6.3,0.63l0.76,5.18l-3.63-1.78
		c-1.09-0.23-2.21-0.36-3.1-0.36c-1.42,0-2.18,0.43-2.18,1.12c0,0.79,0.66,1.25,3.23,1.78c4.72,0.92,6.47,2.77,6.47,5.71
		c0,3.37-2.77,5.54-7.89,5.54C105.85,326.18,103.8,325.88,101.76,325.42z"></path>
	<path d="M136.84,318.72h-11.82c0.46,2.44,2.15,3.4,4.95,3.4c2.28,0,4.13-0.3,6.17-0.86l-0.59,3.66c-1.16,0.5-3.5,1.25-6.63,1.25
		c-5.78,0-10.03-3.07-10.03-8.91c0-5.51,4.09-8.91,9.31-8.91c5.21,0,8.78,3.33,8.78,8.45C136.97,317.69,136.94,318.22,136.84,318.72
		z M124.99,315.62h6.27c-0.23-2.34-1.32-3.5-3.1-3.5C126.54,312.12,125.35,313.14,124.99,315.62z"></path>
	<path d="M145.48,317.23c0-5.61,4.09-8.88,9.6-8.88s9.54,3.27,9.54,8.88c0,5.64-4.06,8.91-9.54,8.91
		C149.81,326.14,145.48,322.88,145.48,317.23z M158.32,317.23c0-3.47-1.22-4.75-3.23-4.75c-2.01,0-3.27,1.29-3.27,4.75
		c0,3.5,1.22,4.79,3.2,4.79C157.03,322.02,158.32,320.73,158.32,317.23z"></path>
	<path d="M168.42,322.28v-9.21h-2.48v-3.73h2.48v-1.52c0-3.13,2.31-5.81,6.47-5.81c1.52,0,2.81,0.2,4.16,0.43v4.72l-3-1.32h-0.17
		c-0.92,0-1.45,0.53-1.45,1.68v1.82h3.6v3.73h-3.53v9.21l1.32,3.33h-8.18L168.42,322.28z"></path>
	<path d="M187.19,322.28v-15.25l-0.79-3.33h7.89l-0.83,3.33v5.35h7.72v-5.35l-0.79-3.33h7.86l-0.79,3.33v15.25l0.79,3.33h-7.86
		l0.79-3.33v-5.45h-7.72v5.45l0.83,3.33h-7.89L187.19,322.28z"></path>
	<path d="M210.66,317.23c0-5.61,4.09-8.88,9.6-8.88s9.54,3.27,9.54,8.88c0,5.64-4.06,8.91-9.54,8.91
		C214.98,326.14,210.66,322.88,210.66,317.23z M223.5,317.23c0-3.47-1.22-4.75-3.23-4.75s-3.27,1.29-3.27,4.75
		c0,3.5,1.22,4.79,3.2,4.79C222.21,322.02,223.5,320.73,223.5,317.23z"></path>
	<path d="M232.9,329.18v-15.64l-1.09-3.33l6.83-1.98v3.76c1.09-2.05,3.1-3.53,5.74-3.53c3.2,0,6.21,2.77,6.21,8.48
		c0,5.58-2.9,9.18-7.26,9.18c-1.95,0-3.3-0.76-4.36-1.58v4.65l1.29,3.33h-8.19L232.9,329.18z M244.55,317.2
		c0-3.2-1.16-4.32-2.84-4.32c-1.65,0-2.91,1.19-2.91,3.73v4.65c0.59,0.46,1.45,0.79,2.38,0.79
		C243.49,322.05,244.55,320.66,244.55,317.2z"></path>
	<path d="M270.85,318.72h-11.82c0.46,2.44,2.15,3.4,4.95,3.4c2.28,0,4.12-0.3,6.17-0.86l-0.59,3.66c-1.16,0.5-3.5,1.25-6.63,1.25
		c-5.78,0-10.03-3.07-10.03-8.91c0-5.51,4.09-8.91,9.31-8.91s8.78,3.33,8.78,8.45C270.98,317.69,270.95,318.22,270.85,318.72z
		 M259,315.62h6.27c-0.23-2.34-1.32-3.5-3.1-3.5C260.55,312.12,259.36,313.14,259,315.62z"></path>
</g>
<path class="st0" d="M212.07,130.79c-3.2,16.44-8.57,24.71-23.33,23.6c2.94-5.03,12.79-14.91,17.69-19.01
	c-7.85,5.05-15.08,13.91-18.3,18.15C185.01,136.26,199.42,130.78,212.07,130.79 M190.47,156.76c-4.07,20.9-10.9,31.41-29.66,30
	c3.73-6.39,16.26-18.95,22.49-24.16c-9.97,6.42-19.17,17.68-23.26,23.07C156.07,163.71,174.4,156.76,190.47,156.76z M238.06,197.6
	c-14.93,12.8-25.89,16.51-38.67,4.73c6.37-2.49,22.64-4.41,30.14-4.61c-10.91-1.07-24.02,1.81-30.07,3.37
	C209.15,182.92,226.42,188.38,238.06,197.6z M231.87,130.44c-1.84,9.46-4.93,14.22-13.42,13.58c1.69-2.89,7.36-8.58,10.18-10.94
	c-4.51,2.91-8.68,8-10.53,10.44C216.3,133.59,224.59,130.44,231.87,130.44z M220,110.12c-1.85,9.46-4.93,14.22-13.42,13.57
	c1.69-2.89,7.36-8.57,10.18-10.94c-4.51,2.91-8.68,8-10.53,10.44C204.42,113.27,212.72,110.12,220,110.12z M240.33,135.5v13.47
	c-18.17-2.41-39.54,2.71-38.69,28.01c5.57-5.47,17.95-16.78,30.4-22.44c-7.97,4.9-24.37,17.14-29.7,23.82
	c20.43,4.58,30.03-5.37,37.99-26.88v113.36l28.72,4.03c-24.93,0.23-107.26,4.47-110.3-20.75c-1.13-9.42-2.61-27.69-0.82-31.26
	c1.79-3.57,16.83-11.16,16.83-11.16s10.22,1.4,15.11,0.57c4.89-0.83,7.91-3.12,5.88-4.95c-2.03-1.83-15.31-1.43-15.31-1.43
	s16.84-12.84,18.72-16.38c1.87-3.55,0.15-5.68-0.2-5.39c-0.35,0.29-28.85,21.21-33.57,24.4c-4.72,3.19-7.47,1.39-9.12-2.43
	c-1.66-3.83-2.17-36.85-1.78-37.49c0.38-0.64,17.6-14.79,20.79-17.85c3.19-3.06,1.53-6.51,1.53-6.51s-1.91,1.28-6.38,4.05
	c-4.47,2.77-16.83,12.53-16.83,12.53s-1.15-8.42-1.02-13.9c0.13-5.48,2.53-40.44,2.53-40.44s1.82-0.96,7.67-5.09
	c5.85-4.13,8.04-12.5,7.95-20.53c-0.02-1.88-0.24-4-0.55-6.15l0,0c0,0-1.03-5.94-1.73-8.73c-0.7-2.79-1.46-5.53-1.46-5.53
	c3.25,5.59,4.85,9.78,6.34,16.23l7.47,4.66c-5.15,2.11-8.83,6.47-7.43,14.23c2.06-2.72,6.48-8.14,11.42-11.74l0.17,0.1
	c-3.64,3.25-9.33,9.1-11.16,12.24c8.16,0.62,12.21-2.87,14.66-10.05v0l0,0c0.04-0.14,0.84-2.75,1.08-3.83
	c0.25-1.11,0.56-2.6,0.56-2.6l0.71,7.9l8.48,5.29c-22.13,2.83-42.91,15.14-37.49,45.06c6.47-8.53,21.03-26.34,36.81-36.5
	c-9.85,8.24-29.67,28.13-35.58,38.24c27.68,2.09,38.94-12.24,45.55-41h0c0,0,0.72-3.25,0.89-4.07c0.17-0.82,0.48-2.39,0.48-2.39
	l1.13,8.02l2.27,1.42l63.86,39.85H240.33z"></path>
<path class="st0" d="M85.19,108.06c2.61,16.81,7.73,25.41,22.75,24.86c-2.78-5.22-12.4-15.64-17.21-19.98
	c7.77,5.43,14.76,14.7,17.86,19.13C112.44,114.67,98.03,108.55,85.19,108.06 M130.74,72.13c0.17,9.3,2.31,14.33,10.49,15.14
	c-1.12-3.03-5.56-9.38-7.85-12.09c3.8,3.52,6.91,9.05,8.26,11.68C145.02,77.72,137.66,73.34,130.74,72.13z M97.27,92.06
	c1.84,9.46,4.93,14.22,13.42,13.58c-1.69-2.89-7.36-8.58-10.18-10.94c4.51,2.91,8.68,8,10.53,10.44
	C112.84,95.21,104.54,92.06,97.27,92.06z M109.77,139.75c-0.44,19.81,3.68,30.72,21.01,33.15c-2.13-6.55-11.02-20.46-15.65-26.42
	c7.8,7.81,13.93,19.87,16.58,25.58C139.66,152.9,124.39,142.94,109.77,139.75z M61.72,160.45c1.84,9.46,4.93,14.22,13.42,13.58
	c-1.69-2.89-7.36-8.58-10.18-10.94c4.51,2.91,8.68,8,10.53,10.44C77.29,163.6,68.99,160.45,61.72,160.45z M79.05,165.94
	c9.94,12.9,21.17,9.51,21.17,9.51s-8.65-14.84-15.27-23.32c-6.62-8.48-9.18-11.52-9.18-11.52s10.7,9.48,17.02,18.22
	c6.31,8.74,9.25,14.65,9.25,14.65s2.98-10.57-2.5-21.41c-5.48-10.84-16.04-15.56-20.65-17.2c-4.61-1.64-11.2-3.31-11.2-3.31
	C69.24,143.9,71.14,155.68,79.05,165.94z M155.58,59.56l2.1,1.34c0,0,5.92-4.15,6.65-4.65c0.73-0.5,2.65-1.81,2.65-1.81
	C163.17,56.02,159.17,57.55,155.58,59.56z M58.65,269.13l-28.3-0.26c0,0,17.29-2.42,28.3-3.97v-68.38v-1.26v-1.82
	c-2.52-4.07-4.21-8.03-5.11-13.03c0.58,1.07,3.34,6.3,5.28,9.32c5.94,7.97,15.04,12.45,27.48,6.11c-5.9-2.2-18.4-7.37-26.79-14.53
	c6.31,4.15,20.87,11.94,27.56,13.55c-3.35-15.19-12.57-19.45-28.42-18.83V135.5H21.77l58.05-36.23V65.94h25.92v17.15l7.49-4.67
	c-0.4,24.1,4.83,37.39,26.1,40.35c-2.64-8.11-13.69-25.34-19.43-32.73c9.67,9.68,17.29,24.61,20.58,31.69
	c9.69-23.41-8.54-35.71-26.41-39.83l35.43-22.11l8.19,5.11c-1.31,0.94-2.45,1.79-3.17,2.38c-2.88,2.36-10.51,9.84-10.57,20.33
	c-0.07,10.49,5.75,16.28,5.75,16.28s1.33-6.17,4.08-15.16c2.74-8.99,8.09-18.39,8.09-18.39s-1.74,4.73-3.35,9.62
	c-1.61,4.89-6.85,25.01-8.75,32.91c-1.9,7.9-6.2,30.18-8.14,30.22c-1.94,0.04-10.75-10.76-15.12-14.61
	c-4.37-3.85-6.21-5.33-6.47-3.48c-0.26,1.85,0.83,4.3,1.81,6.14c0.97,1.84,16.18,22.5,17.32,22.49c1.14-0.02-0.87,47.63-0.94,49.92
	c-0.07,2.29-1.23,3.19-2.05,2.88c-0.82-0.31-2.69,0.19-5-3.23c-2.31-3.42-1.2-20.11-2.32-24.36c-1.13-4.25-5-0.02-4.82,1.51
	c0.18,1.54-0.23,14.68-0.23,14.68s-13.15-12.97-17.67-15.8c-4.52-2.83-5.49,1.34-5.49,1.34s0,0,0.8,1.58
	c0.8,1.58,18.14,21.78,18.14,21.78s-16.96-3.19-23.93-5.55c-6.97-2.36-6.93,2.67-6.93,2.67s18.23,4.16,31.87,13.39
	c13.64,9.23,16.12,11.61,16.3,25.13C137.4,274.09,94.74,268.83,58.65,269.13z"></path>
</svg>